<?xml version="1.0" encoding="UTF-8"?>
<svg version="1.1" xmlns="http://www.w3.org/2000/svg" width="64" height="64">
<path d="M0 0 C0.83265381 0.00523682 1.66530762 0.01047363 2.52319336 0.01586914 C3.42231445 0.0190918 4.32143555 0.02231445 5.24780273 0.02563477 C6.66609375 0.03820312 6.66609375 0.03820312 8.11303711 0.05102539 C9.06243164 0.05553711 10.01182617 0.06004883 10.98999023 0.06469727 C13.34356776 0.07652429 15.69702188 0.09300514 18.05053711 0.11352539 C24.78257013 17.91475556 24.78257013 17.91475556 24.05053711 26.11352539 C21.69100617 28.47305633 20.27158093 28.60493952 17.05053711 29.11352539 C17.99928711 29.81477539 18.94803711 30.51602539 19.92553711 31.23852539 C23.04908337 33.80955757 24.12435007 36.13092112 25.05053711 40.11352539 C25.71053711 40.11352539 26.37053711 40.11352539 27.05053711 40.11352539 C27.05053711 39.45352539 27.05053711 38.79352539 27.05053711 38.11352539 C29.05008457 38.07098183 31.05095347 38.07271756 33.05053711 38.11352539 C34.05053711 39.11352539 34.05053711 39.11352539 34.30053711 42.73852539 C34.26863466 47.15701458 33.01267956 50.18924049 31.05053711 54.11352539 C29.73053711 54.11352539 28.41053711 54.11352539 27.05053711 54.11352539 C27.05053711 53.45352539 27.05053711 52.79352539 27.05053711 52.11352539 C26.39053711 52.11352539 25.73053711 52.11352539 25.05053711 52.11352539 C25.05053711 52.77352539 25.05053711 53.43352539 25.05053711 54.11352539 C23.73053711 54.11352539 22.41053711 54.11352539 21.05053711 54.11352539 C21.05053711 53.45352539 21.05053711 52.79352539 21.05053711 52.11352539 C11.15053711 52.11352539 1.25053711 52.11352539 -8.94946289 52.11352539 C-8.94946289 36.2246365 -8.94946289 36.2246365 -4.94946289 32.11352539 C-2.69946289 30.23852539 -2.69946289 30.23852539 -0.94946289 29.11352539 C-1.91883789 28.80415039 -2.88821289 28.49477539 -3.88696289 28.17602539 C-6.94946289 27.11352539 -6.94946289 27.11352539 -7.94946289 26.11352539 C-8.32612354 19.97053264 -7.35842587 15.01044148 -5.51196289 9.17602539 C-5.28186523 8.40967773 -5.05176758 7.64333008 -4.81469727 6.85375977 C-2.76961006 0.161286 -2.76961006 0.161286 0 0 Z " fill="#577CFD" transform="translate(23.949462890625,2.886474609375)"/>
<path d="M0 0 C0.83265381 0.00523682 1.66530762 0.01047363 2.52319336 0.01586914 C3.42231445 0.0190918 4.32143555 0.02231445 5.24780273 0.02563477 C6.66609375 0.03820312 6.66609375 0.03820312 8.11303711 0.05102539 C9.06243164 0.05553711 10.01182617 0.06004883 10.98999023 0.06469727 C13.34356776 0.07652429 15.69702188 0.09300514 18.05053711 0.11352539 C24.78257013 17.91475556 24.78257013 17.91475556 24.05053711 26.11352539 C22.05053711 28.11352539 22.05053711 28.11352539 18.42553711 28.23852539 C17.31178711 28.19727539 16.19803711 28.15602539 15.05053711 28.11352539 C15.41147461 27.42645508 15.77241211 26.73938477 16.14428711 26.03149414 C16.84038086 24.67991211 16.84038086 24.67991211 17.55053711 23.30102539 C18.01459961 22.40770508 18.47866211 21.51438477 18.95678711 20.59399414 C20.25226852 18.10784513 20.25226852 18.10784513 20.05053711 15.11352539 C19.44725586 14.99235352 18.84397461 14.87118164 18.22241211 14.74633789 C17.42319336 14.57875977 16.62397461 14.41118164 15.80053711 14.23852539 C15.01163086 14.07610352 14.22272461 13.91368164 13.40991211 13.74633789 C11.05053711 13.11352539 11.05053711 13.11352539 8.90209961 11.96118164 C7.98557617 11.5415918 7.98557617 11.5415918 7.05053711 11.11352539 C5.34937335 12.05364221 3.68549418 13.06248156 2.05053711 14.11352539 C-1.26196289 14.80102539 -1.26196289 14.80102539 -3.94946289 15.11352539 C-3.27063246 18.2289998 -2.20839387 20.9649026 -0.88696289 23.86352539 C-0.52473633 24.66274414 -0.16250977 25.46196289 0.21069336 26.28540039 C0.4878418 26.88868164 0.76499023 27.49196289 1.05053711 28.11352539 C-2.32446289 28.23852539 -2.32446289 28.23852539 -5.94946289 28.11352539 C-7.94946289 26.11352539 -7.94946289 26.11352539 -8.22680664 22.54711914 C-8.10660796 17.84022392 -6.92490481 13.64061047 -5.51196289 9.17602539 C-5.28186523 8.40967773 -5.05176758 7.64333008 -4.81469727 6.85375977 C-2.76961006 0.161286 -2.76961006 0.161286 0 0 Z " fill="#587CFD" transform="translate(23.949462890625,2.886474609375)"/>
<path d="M0 0 C0.56203125 0.30679687 1.1240625 0.61359375 1.703125 0.9296875 C4.06346934 2.02957585 6.20465562 2.60095851 8.75 3.125 C9.54921875 3.29257812 10.3484375 3.46015625 11.171875 3.6328125 C11.77515625 3.75398438 12.3784375 3.87515625 13 4 C14.05424115 6.68521423 14.12687274 7.7066664 12.9609375 10.40234375 C7.10991828 19.75532767 7.10991828 19.75532767 3 23 C-1 23 -1 23 -3.5 20.875 C-5.96882082 18.03585606 -8.02557089 15.19993683 -10 12 C-10.433125 11.29875 -10.86625 10.5975 -11.3125 9.875 C-12.17184402 7.53133448 -11.67809622 6.35138401 -11 4 C-10.37351562 3.87882812 -9.74703125 3.75765625 -9.1015625 3.6328125 C-8.28429687 3.46523438 -7.46703125 3.29765625 -6.625 3.125 C-5.81289063 2.96257813 -5.00078125 2.80015625 -4.1640625 2.6328125 C-1.81326077 2.13341068 -1.81326077 2.13341068 0 0 Z " fill="#F8CA30" transform="translate(31,13)"/>
<path d="M0 0 C0.78375 0.04125 1.5675 0.0825 2.375 0.125 C2.375 0.785 2.375 1.445 2.375 2.125 C3.035 2.125 3.695 2.125 4.375 2.125 C4.375 1.465 4.375 0.805 4.375 0.125 C6.37454746 0.08245644 8.37541636 0.08419217 10.375 0.125 C11.375 1.125 11.375 1.125 11.625 4.75 C11.59309755 9.16848919 10.33714245 12.2007151 8.375 16.125 C7.055 16.125 5.735 16.125 4.375 16.125 C4.375 15.465 4.375 14.805 4.375 14.125 C3.715 14.125 3.055 14.125 2.375 14.125 C2.375 14.785 2.375 15.445 2.375 16.125 C1.055 16.125 -0.265 16.125 -1.625 16.125 C-5.24689055 6.22947761 -5.24689055 6.22947761 -4.625 2.125 C-2.625 0.125 -2.625 0.125 0 0 Z " fill="#BDBEC0" transform="translate(46.625,40.875)"/>
<path d="M0 0 C1.91329102 -0.01836914 1.91329102 -0.01836914 3.86523438 -0.03710938 C5.09435547 -0.03904297 6.32347656 -0.04097656 7.58984375 -0.04296875 C8.71124756 -0.04707764 9.83265137 -0.05118652 10.98803711 -0.05541992 C14.07683614 0.18863273 16.27435709 0.87610154 19.0625 2.1875 C18.7325 3.1775 18.4025 4.1675 18.0625 5.1875 C12.68167008 7.37373317 5.8168152 6.37213259 0.125 6.375 C-1.15052734 6.38724609 -2.42605469 6.39949219 -3.74023438 6.41210938 C-5.58391602 6.41500977 -5.58391602 6.41500977 -7.46484375 6.41796875 C-9.14694946 6.42413208 -9.14694946 6.42413208 -10.86303711 6.43041992 C-13.95183614 6.18636727 -16.14935709 5.49889846 -18.9375 4.1875 C-18.6075 3.1975 -18.2775 2.2075 -17.9375 1.1875 C-12.55667008 -0.99873317 -5.6918152 0.00286741 0 0 Z " fill="#000000" transform="translate(31.9375,57.8125)"/>
<path d="M0 0 C0.66 0 1.32 0 2 0 C3.11445498 2.22890995 3.16480286 3.53055106 3.1875 6 C3.20167969 6.70125 3.21585938 7.4025 3.23046875 8.125 C3 10 3 10 1 12 C-2.625 12.125 -2.625 12.125 -6 12 C-4.02 8.04 -2.04 4.08 0 0 Z " fill="#5A7DFB" transform="translate(45,19)"/>
<path d="M0 0 C3.32993034 3.82941989 5.05324525 8.37522222 7 13 C3.625 13.125 3.625 13.125 0 13 C-2.60704898 10.39295102 -2.23905333 8.52661759 -2.265625 4.97265625 C-2 3 -2 3 0 0 Z " fill="#587DFC" transform="translate(18,18)"/>
<path d="M0 0 C0.33 1.65 0.66 3.3 1 5 C-2.63 5 -6.26 5 -10 5 C-9.67 3.68 -9.34 2.36 -9 1 C-6.04335481 -0.4783226 -3.25770263 -0.06032783 0 0 Z " fill="#4B6BD9" transform="translate(44,50)"/>
<path d="M0 0 C2.97 0 5.94 0 9 0 C9 0.66 9 1.32 9 2 C9.66 2 10.32 2 11 2 C11 2.66 11 3.32 11 4 C11.66 4 12.32 4 13 4 C13 4.66 13 5.32 13 6 C12.34 6 11.68 6 11 6 C11 6.66 11 7.32 11 8 C10.34 8 9.68 8 9 8 C9 7.34 9 6.68 9 6 C8.34 6 7.68 6 7 6 C6.67 4.68 6.34 3.36 6 2 C3.69 2.33 1.38 2.66 -1 3 C-0.67 2.01 -0.34 1.02 0 0 Z " fill="#849FFF" transform="translate(22,3)"/>
<path d="M0 0 C1.4540625 0.0309375 1.4540625 0.0309375 2.9375 0.0625 C2.9375 3.0625 2.9375 3.0625 0.6875 5.8125 C-2.0625 8.0625 -2.0625 8.0625 -4.375 7.875 C-5.2103125 7.4728125 -5.2103125 7.4728125 -6.0625 7.0625 C-3.83347902 0.07823427 -3.83347902 0.07823427 0 0 Z " fill="#A6BAFF" transform="translate(25.0625,4.9375)"/>
<path d="M0 0 C2.31 0.33 4.62 0.66 7 1 C6.34 2.32 5.68 3.64 5 5 C3.0625 4.1875 3.0625 4.1875 1 3 C0.67 2.01 0.34 1.02 0 0 Z " fill="#F4A411" transform="translate(28,32)"/>
<path d="M0 0 C0.66 0 1.32 0 2 0 C2 0.66 2 1.32 2 2 C2.66 2 3.32 2 4 2 C4 2.66 4 3.32 4 4 C3.34 4 2.68 4 2 4 C2 4.66 2 5.32 2 6 C1.34 6 0.68 6 0 6 C0 5.34 0 4.68 0 4 C-0.66 4 -1.32 4 -2 4 C-2 3.34 -2 2.68 -2 2 C-1.34 2 -0.68 2 0 2 C0 1.34 0 0.68 0 0 Z " fill="#ED425F" transform="translate(31,5)"/>
</svg>
