<?xml version="1.0" encoding="UTF-8"?>
<svg version="1.1" xmlns="http://www.w3.org/2000/svg" width="48" height="48">
<path d="M0 0 C1.26972656 0.00257812 2.53945313 0.00515625 3.84765625 0.0078125 C5.11480469 0.00523438 6.38195312 0.00265625 7.6875 0 C10.91015625 0.1328125 10.91015625 0.1328125 12.91015625 1.1328125 C13.60056199 2.78978629 14.26321975 4.4583886 14.91015625 6.1328125 C15.68359375 7.40125 15.68359375 7.40125 16.47265625 8.6953125 C19.13739111 13.21377596 19.02085492 17.1773565 18.97265625 22.3828125 C18.96363281 23.64609375 18.95460938 24.909375 18.9453125 26.2109375 C18.93371094 27.17515625 18.92210938 28.139375 18.91015625 29.1328125 C17.59015625 29.1328125 16.27015625 29.1328125 14.91015625 29.1328125 C15.24015625 29.7928125 15.57015625 30.4528125 15.91015625 31.1328125 C17.58078125 31.5659375 17.58078125 31.5659375 19.28515625 32.0078125 C22.91015625 33.1328125 22.91015625 33.1328125 24.84765625 34.8828125 C26.21620697 37.7809199 26.19162452 39.9662945 25.91015625 43.1328125 C24.91015625 44.1328125 24.91015625 44.1328125 22.44140625 44.265625 C20.9409375 44.26175781 20.9409375 44.26175781 19.41015625 44.2578125 C18.40984375 44.26039062 17.40953125 44.26296875 16.37890625 44.265625 C13.91015625 44.1328125 13.91015625 44.1328125 12.91015625 43.1328125 C11.05840919 42.97494942 9.20106515 42.88173894 7.34375 42.81640625 C5.65668945 42.75356445 5.65668945 42.75356445 3.93554688 42.68945312 C2.15954102 42.63047852 2.15954102 42.63047852 0.34765625 42.5703125 C-0.84021484 42.52712891 -2.02808594 42.48394531 -3.25195312 42.43945312 C-6.19779159 42.33297704 -9.14371805 42.23096409 -12.08984375 42.1328125 C-12.32421875 36.4765625 -12.32421875 36.4765625 -10.21484375 33.3828125 C-8.85929352 31.94752402 -7.48583255 30.5288013 -6.08984375 29.1328125 C-6.73695312 28.58625 -7.3840625 28.0396875 -8.05078125 27.4765625 C-11.15587422 23.90749012 -10.75442689 21.0319903 -10.625 16.45703125 C-9.68015444 10.58795407 -6.79639374 0.29213323 0 0 Z " fill="#587BFC" transform="translate(20.08984375,3.8671875)"/>
<path d="M0 0 C4.02297304 1.43039041 7.68854718 3.02732819 10.8125 6 C11.4375 9.6875 11.4375 9.6875 10.8125 13 C10.1525 13.66 9.4925 14.32 8.8125 15 C8.503125 15.928125 8.19375 16.85625 7.875 17.8125 C6.85125963 20.88372112 5.56406501 23.29303589 3.8125 26 C-0.0139785 24.72450717 -0.38331515 23.52992688 -2.1875 20 C-2.87710962 18.00779443 -3.54829057 16.00894394 -4.1875 14 C-4.5175 13.67 -4.8475 13.34 -5.1875 13 C-5.390625 10.8203125 -5.390625 10.8203125 -5.4375 8.125 C-5.46328125 7.24070312 -5.4890625 6.35640625 -5.515625 5.4453125 C-5.1875 3 -5.1875 3 -3.80859375 1.1796875 C-2.1875 0 -2.1875 0 0 0 Z " fill="#F8D9AB" transform="translate(21.1875,15)"/>
<path d="M0 0 C3.1875 -0.328125 3.1875 -0.328125 7 -0.25 C8.258125 -0.23453125 9.51625 -0.2190625 10.8125 -0.203125 C14 0 14 0 16 1 C16 4.63 16 8.26 16 12 C10.06 12 4.12 12 -2 12 C-2 3 -2 3 0 0 Z " fill="#567AF9" transform="translate(17,4)"/>
<path d="M0 0 C3.53905047 3.06717707 4.80932924 5.4924607 6 10 C6.1953125 13.6484375 6.1953125 13.6484375 6.125 17.375 C6.10695313 18.62023437 6.08890625 19.86546875 6.0703125 21.1484375 C6.04710938 22.08945312 6.02390625 23.03046875 6 24 C4.68 24 3.36 24 2 24 C1.67 25.65 1.34 27.3 1 29 C0.01 28.67 -0.98 28.34 -2 28 C-2 26.68 -2 25.36 -2 24 C-2.66 24 -3.32 24 -4 24 C-3.125 20.125 -3.125 20.125 -2 19 C-1.24817347 15.6709041 -1.24817347 15.6709041 -2 12 C-3.96892582 10.30250159 -5.95038257 9.15101469 -8.25 7.9453125 C-8.8275 7.63335938 -9.405 7.32140625 -10 7 C-10 6.67 -10 6.34 -10 6 C-3.375 5.875 -3.375 5.875 0 7 C0 4.69 0 2.38 0 0 Z " fill="#444444" transform="translate(33,9)"/>
<path d="M0 0 C0.33 0 0.66 0 1 0 C1 2.31 1 4.62 1 7 C1.99 7.33 2.98 7.66 4 8 C3.67 8.33 3.34 8.66 3 9 C2.8754514 10.64230364 2.82431476 12.29052276 2.8125 13.9375 C2.79832031 14.83339844 2.78414062 15.72929687 2.76953125 16.65234375 C2.76805231 19.19114534 2.76805231 19.19114534 5 21 C5 21.99 5 22.98 5 24 C3.3125 24.8125 3.3125 24.8125 1 25 C-1.69493752 23.34628834 -2.59789501 22.71553931 -4 20 C-5.2863912 12.325632 -4.02834506 6.54606072 0 0 Z " fill="#404040" transform="translate(14,9)"/>
<path d="M0 0 C3.59134462 0.98761977 4.63488704 2.50990014 6.5 5.6875 C6.8125 8.9375 6.8125 8.9375 6.5 11.6875 C5.5 12.6875 5.5 12.6875 3.03125 12.8203125 C1.53078125 12.81644531 1.53078125 12.81644531 0 12.8125 C-1.0003125 12.81507812 -2.000625 12.81765625 -3.03125 12.8203125 C-5.5 12.6875 -5.5 12.6875 -6.5 11.6875 C-7.0038007 8.16089513 -6.45507415 6.59931222 -4.8125 3.375 C-2.5 0.6875 -2.5 0.6875 0 0 Z " fill="#6C4C43" transform="translate(39.5,35.3125)"/>
<path d="M0 0 C3.3 0 6.6 0 10 0 C9.43454163 3.95820859 8.19097652 6.6659053 6 10 C3 9 3 9 1.3125 6.6875 C0 4 0 4 0 0 Z " fill="#F9C985" transform="translate(19,31)"/>
<path d="M0 0 C1.32 0 2.64 0 4 0 C4 2.31 4 4.62 4 7 C2.68 7 1.36 7 0 7 C-0.33 8.65 -0.66 10.3 -1 12 C-1.99 11.67 -2.98 11.34 -4 11 C-4.33 9.35 -4.66 7.7 -5 6 C-3.68 5.67 -2.36 5.34 -1 5 C-0.67 3.35 -0.34 1.7 0 0 Z " fill="#6A5352" transform="translate(35,26)"/>
<path d="M0 0 C1.32 0 2.64 0 4 0 C4 1.65 4 3.3 4 5 C4.99 5 5.98 5 7 5 C7 6.65 7 8.3 7 10 C5.68 10 4.36 10 3 10 C3 8.35 3 6.7 3 5 C2.01 5 1.02 5 0 5 C0 3.35 0 1.7 0 0 Z " fill="#6C4B40" transform="translate(41,28)"/>
<path d="M0 0 C0.99 0.33 1.98 0.66 3 1 C3 2.32 3 3.64 3 5 C1.35 5 -0.3 5 -2 5 C-1.34 3.35 -0.68 1.7 0 0 Z " fill="#6E5046" transform="translate(36,28)"/>
<path d="M0 0 C1.32 0 2.64 0 4 0 C3.67 0.99 3.34 1.98 3 3 C2.34 3 1.68 3 1 3 C0.34 4.32 -0.32 5.64 -1 7 C-1.66 7 -2.32 7 -3 7 C-3 6.34 -3 5.68 -3 5 C-2.34 5 -1.68 5 -1 5 C-0.67 3.35 -0.34 1.7 0 0 Z " fill="#908F8F" transform="translate(35,26)"/>
</svg>
